<?xml version="1.0" encoding="utf-8"?>
<!-- Generator: Adobe Illustrator 27.5.0, SVG Export Plug-In . SVG Version: 6.00 Build 0)  -->
<svg version="1.1" xmlns="http://www.w3.org/2000/svg" xmlns:xlink="http://www.w3.org/1999/xlink" x="0px" y="0px"
	 viewBox="0 0 200 100" style="enable-background:new 0 0 200 100;" xml:space="preserve">
<style type="text/css">
	.st0{display:none;}
	.st1{display:inline;fill:#333333;}
	.st2{fill:#B4DDA3;}
	.st3{fill:#FFFFFF;}
</style>
<g id="Layer_3" class="st0">
	<rect y="0" class="st1" width="200" height="101"/>
</g>
<g id="Layer_2">
	<path class="st2" d="M50,19c0.1,0.05,2,1,2,1l0,0c-0.12,7.3,0.3,12.66,0.53,14.24c0.23,1.55,0.54,3.1,0.54,3.1
		c0.13,0.63,0.23,1.11,0.3,1.44c3.93,17.8,4.97,33.49,7.26,33.54c2,0.04,7.02-11.83,4.15-23.86C61.44,34.4,48.53,25.17,52,20
		c0.22-0.33,0.48-0.56,1-1c4.83-4.15,11.78-2.29,19.4-1.32c14.3,1.82,22.25-1.42,23.17,1.38c0.49,1.48-1.66,2.52-3.46,5.53
		c-3.29,5.5-1.75,11.44,1.38,24.55c4.84,20.23,5.44,23.88,6.92,23.86c2.39-0.04,4.02-9.67,4.49-12.45c1.51-8.91,0.42-16.25,0-18.67
		c-1.38-8.02-1.29-12.21-3.8-15.9c-2.79-4.1-6.04-5.46-5.53-6.92c0.62-1.79,6-0.97,14.18-0.69c9.33,0.32,18.67-0.44,28.01-0.69
		c9.17-0.24,15.85-0.38,16.25,1.38c0.24,1.05-2.02,1.63-3.11,4.15c-1.14,2.62-0.25,5.54,2.42,11.06c4.46,9.22,6.68,13.83,8.3,13.48
		c3.1-0.67,5.07-16.7,0-21.78c0,0-3.9-3.91-3.5-6.72c0.01-0.1,0.03-0.15,0.05-0.19c0.58-1.44,5.51,0.31,11.06,0
		c5.68-0.31,7.41-2.52,8.64-1.38c1.8,1.66-0.83,7.32-4.49,15.21c-3.17,6.82-4.75,10.23-5.93,11.61c-1.25,1.46-1.81,3.39-2.75,5.07
		c-0.61,1.08-0.68,1.11-0.31,1.65c0,0,0,0,0,0c10.75,16.12,16.48,24.72,14.18,28.01c-1.67,2.38-5.7-0.69-19.02,0
		c-7.6,0.39-9.12,1.54-11.41,0c-3.98-2.67-2.15-8-6.22-18.67c-1.1-2.87-3.94-10.33-6.22-10.03c-2.15,0.29-4.05,7.51-2.77,14.18
		c1.69,8.75,8.3,13.52,6.92,15.21c-0.95,1.16-3.89-1.31-10.37-1.38c-4.49-0.05-5.97,1.11-7.26,0c-2.82-2.44,0.77-11,1.38-12.45
		c3.15-7.5,6.93-9.14,8.72-16.71c0.4-1.68,0.73-3.12,0.61-5.07c-0.21-3.59-1.72-5.85-5.88-12.1c-5.55-8.35-5.97-9.01-6.92-8.99
		c-2.79,0.07-4.68,6.02-7.61,15.56c-3.37,10.96-5.05,16.44-5.53,24.55c-0.61,10.21,1.36,12.97-1.38,15.9
		c-3.35,3.59-9.55,2.99-19.02,2.07c-6.07-0.59-7.68-1.67-8.64-2.77c-2.08-2.38-1.07-4.79-2.07-10.37
		c-0.94-5.27-3.46-12.21-5.53-12.1c-2.1,0.11-3.82,7.47-4.15,12.1c-0.04,0.59-0.08,1.55-0.16,3.46c-0.32,7.44-0.11,7.7-0.53,8.3
		c-1.23,1.79-4.29,1.46-16.25,0c-7.95-0.97-12-0.5-14.52,0C33.94,80.07,33.53,80.18,33,80c-3.94-1.36,0.86-13.34-2.78-27.4
		c-2.07-7.99-5.59-12.05-8.89-21.71c-1.76-5.16-2.87-10.44-2.87-10.44c0.06-0.36,0.19-0.91,0.54-1.45c1.8-2.82,7.2-2.36,11-2
		c7.41,0.71,6.76,2.42,11,2C43.05,18.8,47.85,17.93,50,19z"/>
	<g>
		<g>
			<path class="st3" d="M160.85-14.84c1.93,0,1.93-3,0-3C158.92-17.84,158.92-14.84,160.85-14.84L160.85-14.84z"/>
		</g>
	</g>
</g>
</svg>
